<svg width="86" height="61" viewBox="0 0 86 61" fill="none" xmlns="http://www.w3.org/2000/svg">
<path d="M42.7726 59.3738H3.17822C1.97456 59.3738 1 58.384 1 57.1658V10.687C1 9.4688 1.97456 8.479 3.17822 8.479H8.18095V50.5521C8.18095 51.9192 9.45642 52.909 10.7627 52.5663C16.2134 51.137 29.4947 49.237 42.7726 59.3738V59.3738Z" stroke="#DB8546" stroke-width="2" stroke-miterlimit="10" stroke-linejoin="round"/>
<path d="M42.7728 8.4789V59.3737C29.4949 49.2369 16.2136 51.1369 10.7629 52.5662C9.45663 52.9089 8.18115 51.9191 8.18115 50.5521V4.18057C8.18115 3.18039 8.87873 2.32557 9.84645 2.13523C15.4168 1.04161 33.5812 -1.57477 42.7728 8.4789Z" stroke="#DB8546" stroke-width="2" stroke-miterlimit="10" stroke-linejoin="round"/>
<path d="M84.5487 10.687V57.1658C84.5487 58.384 83.5708 59.3738 82.3671 59.3738H42.7727C56.054 49.237 69.3354 51.137 74.7861 52.5663C76.0923 52.909 77.3644 51.9192 77.3644 50.5521V8.479H82.3671C83.5708 8.479 84.5487 9.4688 84.5487 10.687V10.687Z" stroke="#DB8546" stroke-width="2" stroke-miterlimit="10" stroke-linejoin="round"/>
<path d="M77.3644 4.18057V50.5521C77.3644 51.9191 76.0923 52.9089 74.7861 52.5662C69.3354 51.1369 56.054 49.2369 42.7727 59.3737V8.4789C51.9677 -1.57477 70.1321 1.04161 75.7025 2.13523C76.6702 2.32557 77.3644 3.18039 77.3644 4.18057V4.18057Z" stroke="#DB8546" stroke-width="2" stroke-miterlimit="10" stroke-linejoin="round"/>
</svg>
