<svg width="281" height="64" viewBox="0 0 281 64" fill="none" xmlns="http://www.w3.org/2000/svg">
<g clip-path="url(#clip0_578_1135)">
<path d="M32 64C14.3539 64 0 49.6461 0 32C0 14.3539 14.3539 0 32 0C49.6461 0 64 14.3539 64 32C64 49.6461 49.6461 64 32 64ZM32 1.70576C15.295 1.70576 1.70576 15.295 1.70576 32C1.70576 48.705 15.295 62.2942 32 62.2942C48.705 62.2942 62.2942 48.705 62.2942 32C62.2942 15.295 48.705 1.70576 32 1.70576Z" fill="#3F3025"/>
<path d="M32 60.3042C16.3923 60.3042 3.6958 47.6077 3.6958 32C3.6958 16.3923 16.3923 3.6958 32 3.6958C47.6077 3.6958 60.3042 16.3923 60.3042 32C60.3042 47.6077 47.6077 60.3042 32 60.3042ZM32 5.40156C17.3333 5.40156 5.40156 17.3333 5.40156 32C5.40156 46.6667 17.3333 58.5984 32 58.5984C46.6667 58.5984 58.5984 46.6667 58.5984 32C58.5984 17.3333 46.6667 5.40156 32 5.40156Z" fill="#3F3025"/>
<path d="M32 56.6084C18.4307 56.6084 7.39162 45.5693 7.39162 32C7.39162 18.4307 18.4307 7.3916 32 7.3916C45.5693 7.3916 56.6084 18.4307 56.6084 32C56.6084 45.5693 45.5693 56.6084 32 56.6084ZM32 9.09736C19.3717 9.09736 9.09737 19.3717 9.09737 32C9.09737 44.6283 19.3717 54.9026 32 54.9026C44.6283 54.9026 54.9026 44.6283 54.9026 32C54.9026 19.3717 44.6283 9.09736 32 9.09736Z" fill="#3F3025"/>
<path d="M32 8.24438C18.8799 8.24438 8.24449 18.8798 8.24449 31.9999C8.24449 45.12 18.8799 55.7554 32 55.7554C45.1201 55.7554 55.7555 45.12 55.7555 31.9999C55.7555 18.8798 45.1201 8.24438 32 8.24438ZM35.5593 43.8833C33.6148 46.2373 32.1137 46.7632 28.5686 46.7632C25.0235 46.7632 21.4243 45.2622 21.4243 45.2622L22.1748 42.7888C22.1748 42.7888 26.3539 44.8158 28.5089 44.776C30.6667 44.7362 31.5025 44.5315 33.5039 42.3425C35.5053 40.1506 40.0967 19.8236 40.0967 19.8236C40.0967 19.8236 32.688 19.4597 29.973 19.6218C27.2552 19.7838 25.3845 19.8066 25.4072 21.8535C25.43 23.8691 31.6731 26.5557 31.8664 26.6381C31.6162 26.5926 23.5792 25.0973 23.1329 22.3823C22.678 19.6218 25.2594 18.4448 30.0384 17.6744C34.8173 16.9039 43.2637 17.4697 43.2637 17.4697C43.2637 17.4697 37.5068 41.5294 35.5593 43.8833Z" fill="#3F3025"/>
</g>
<path d="M84.4972 18.593V16.8182H92.8594V18.593H89.7422V27H87.6143V18.593H84.4972ZM105.928 21.9091C105.928 23.0194 105.718 23.964 105.297 24.7429C104.879 25.5218 104.309 26.1167 103.587 26.5277C102.867 26.9354 102.059 27.1392 101.16 27.1392C100.256 27.1392 99.4436 26.9337 98.7244 26.5227C98.0051 26.1117 97.4367 25.5168 97.0191 24.7379C96.6015 23.959 96.3927 23.0161 96.3927 21.9091C96.3927 20.7988 96.6015 19.8542 97.0191 19.0753C97.4367 18.2964 98.0051 17.7031 98.7244 17.2955C99.4436 16.8845 100.256 16.679 101.16 16.679C102.059 16.679 102.867 16.8845 103.587 17.2955C104.309 17.7031 104.879 18.2964 105.297 19.0753C105.718 19.8542 105.928 20.7988 105.928 21.9091ZM103.746 21.9091C103.746 21.1899 103.638 20.5833 103.423 20.0895C103.21 19.5956 102.91 19.2211 102.523 18.9659C102.135 18.7107 101.681 18.5831 101.16 18.5831C100.64 18.5831 100.186 18.7107 99.7982 18.9659C99.4104 19.2211 99.1088 19.5956 98.8934 20.0895C98.6813 20.5833 98.5752 21.1899 98.5752 21.9091C98.5752 22.6283 98.6813 23.2348 98.8934 23.7287C99.1088 24.2225 99.4104 24.5971 99.7982 24.8523C100.186 25.1075 100.64 25.2351 101.16 25.2351C101.681 25.2351 102.135 25.1075 102.523 24.8523C102.91 24.5971 103.21 24.2225 103.423 23.7287C103.638 23.2348 103.746 22.6283 103.746 21.9091ZM112.232 27L109.319 16.8182H111.67L113.356 23.8928H113.44L115.299 16.8182H117.313L119.167 23.9077H119.257L120.942 16.8182H123.294L120.38 27H118.282L116.343 20.343H116.264L114.33 27H112.232ZM127.246 27V16.8182H134.107V18.593H129.399V21.0192H133.754V22.794H129.399V25.2251H134.127V27H127.246ZM138.618 27V16.8182H140.771V25.2251H145.136V27H138.618ZM149.362 27V16.8182H151.514V25.2251H155.879V27H149.362ZM160.105 27V16.8182H166.966V18.593H162.258V21.0192H166.613V22.794H162.258V25.2251H166.986V27H160.105ZM171.477 27V16.8182H175.494C176.263 16.8182 176.919 16.9557 177.463 17.2308C178.01 17.5026 178.426 17.8887 178.711 18.3892C178.999 18.8864 179.143 19.4714 179.143 20.1442C179.143 20.8203 178.997 21.402 178.706 21.8892C178.414 22.3731 177.992 22.7443 177.438 23.0028C176.888 23.2614 176.222 23.3906 175.439 23.3906H172.75V21.6605H175.091C175.502 21.6605 175.844 21.6042 176.116 21.4915C176.387 21.3788 176.59 21.2098 176.722 20.9844C176.858 20.759 176.926 20.4789 176.926 20.1442C176.926 19.8061 176.858 19.5211 176.722 19.2891C176.59 19.0571 176.386 18.8814 176.111 18.7621C175.839 18.6394 175.496 18.5781 175.082 18.5781H173.63V27H171.477ZM176.976 22.3665L179.506 27H177.13L174.654 22.3665H176.976ZM188.988 19.7464C188.948 19.3454 188.778 19.0339 188.476 18.8118C188.174 18.5897 187.765 18.4787 187.248 18.4787C186.897 18.4787 186.6 18.5284 186.358 18.6278C186.116 18.724 185.931 18.8582 185.801 19.0305C185.675 19.2029 185.612 19.3984 185.612 19.6172C185.606 19.7995 185.644 19.9586 185.727 20.0945C185.813 20.2304 185.931 20.348 186.08 20.4474C186.229 20.5436 186.401 20.6281 186.597 20.701C186.792 20.7706 187.001 20.8303 187.223 20.88L188.138 21.0987C188.582 21.1982 188.99 21.3307 189.361 21.4964C189.732 21.6622 190.054 21.866 190.325 22.108C190.597 22.3499 190.808 22.6349 190.957 22.9631C191.109 23.2912 191.187 23.6674 191.19 24.0916C191.187 24.7147 191.028 25.255 190.713 25.7124C190.402 26.1664 189.951 26.5194 189.361 26.7713C188.774 27.0199 188.067 27.1442 187.238 27.1442C186.416 27.1442 185.7 27.0182 185.09 26.7663C184.484 26.5144 184.01 26.1416 183.668 25.6477C183.33 25.1506 183.153 24.5357 183.137 23.8033H185.22C185.243 24.1446 185.341 24.4297 185.513 24.6584C185.689 24.8838 185.922 25.0545 186.214 25.1705C186.509 25.2831 186.842 25.3395 187.213 25.3395C187.578 25.3395 187.894 25.2865 188.163 25.1804C188.435 25.0743 188.645 24.9268 188.794 24.7379C188.943 24.549 189.018 24.3319 189.018 24.0866C189.018 23.858 188.95 23.6657 188.814 23.5099C188.681 23.3542 188.486 23.2216 188.227 23.1122C187.972 23.0028 187.659 22.9034 187.288 22.8139L186.179 22.5355C185.321 22.3267 184.643 22.0002 184.146 21.5561C183.649 21.112 183.402 20.5137 183.405 19.7614C183.402 19.1449 183.566 18.6063 183.897 18.1456C184.232 17.6849 184.691 17.3253 185.274 17.0668C185.858 16.8082 186.521 16.679 187.263 16.679C188.019 16.679 188.678 16.8082 189.242 17.0668C189.808 17.3253 190.249 17.6849 190.564 18.1456C190.879 18.6063 191.041 19.1399 191.051 19.7464H188.988ZM201.479 27V16.8182H203.631V25.2251H207.996V27H201.479ZM214.375 16.8182V27H212.222V16.8182H214.375ZM218.946 16.8182H221.601L224.405 23.6591H224.524L227.328 16.8182H229.983V27H227.895V20.3729H227.81L225.175 26.9503H223.753L221.118 20.348H221.034V27H218.946V16.8182ZM236.709 16.8182V27H234.556V16.8182H236.709ZM240.892 18.593V16.8182H249.255V18.593H246.137V27H244.01V18.593H240.892ZM253.432 27V16.8182H260.293V18.593H255.585V21.0192H259.94V22.794H255.585V25.2251H260.312V27H253.432ZM268.413 27H264.804V16.8182H268.443C269.467 16.8182 270.349 17.022 271.088 17.4297C271.827 17.834 272.396 18.4157 272.793 19.1747C273.194 19.9337 273.395 20.8419 273.395 21.8991C273.395 22.9598 273.194 23.8712 272.793 24.6335C272.396 25.3958 271.824 25.9808 271.078 26.3885C270.336 26.7962 269.448 27 268.413 27ZM266.957 25.1555H268.324C268.96 25.1555 269.496 25.0429 269.93 24.8175C270.367 24.5888 270.695 24.2358 270.914 23.7585C271.136 23.2779 271.247 22.6581 271.247 21.8991C271.247 21.1468 271.136 20.532 270.914 20.0547C270.695 19.5774 270.369 19.2261 269.935 19.0007C269.501 18.7753 268.965 18.6626 268.329 18.6626H266.957V25.1555Z" fill="#3F3025"/>
<path d="M90.8011 39.3636C90.7415 38.8598 90.4995 38.4688 90.0753 38.1903C89.651 37.9119 89.1307 37.7727 88.5142 37.7727C88.0634 37.7727 87.669 37.8456 87.331 37.9915C86.9962 38.1373 86.7344 38.3378 86.5455 38.593C86.3598 38.8482 86.267 39.1383 86.267 39.4631C86.267 39.7348 86.3317 39.9685 86.4609 40.1641C86.5935 40.3563 86.7625 40.517 86.968 40.6463C87.1735 40.7723 87.389 40.8767 87.6143 40.9595C87.8397 41.0391 88.0469 41.1037 88.2358 41.1534L89.2699 41.4318C89.535 41.5014 89.83 41.5975 90.1548 41.7202C90.483 41.8428 90.7962 42.0102 91.0945 42.2223C91.3961 42.4311 91.6446 42.6996 91.8402 43.0277C92.0357 43.3558 92.1335 43.7585 92.1335 44.2358C92.1335 44.786 91.9893 45.2831 91.701 45.7273C91.416 46.1714 90.9983 46.5244 90.4482 46.7862C89.9013 47.0481 89.2367 47.179 88.4545 47.179C87.7254 47.179 87.094 47.0613 86.5604 46.826C86.0301 46.5907 85.6125 46.2625 85.3075 45.8416C85.0059 45.4207 84.8352 44.9318 84.7955 44.375H86.0682C86.1013 44.7595 86.2306 45.0777 86.456 45.3295C86.6847 45.5781 86.973 45.7637 87.321 45.8864C87.6723 46.0057 88.0502 46.0653 88.4545 46.0653C88.9252 46.0653 89.3478 45.9891 89.7223 45.8366C90.0968 45.6809 90.3935 45.4654 90.6122 45.1903C90.831 44.9119 90.9403 44.5871 90.9403 44.2159C90.9403 43.8778 90.8459 43.6027 90.657 43.3906C90.468 43.1785 90.2195 43.0062 89.9112 42.8736C89.603 42.741 89.2699 42.625 88.9119 42.5256L87.6591 42.1676C86.8636 41.9389 86.2339 41.6125 85.7699 41.1882C85.3059 40.764 85.0739 40.2088 85.0739 39.5227C85.0739 38.9527 85.228 38.4555 85.5362 38.0312C85.8478 37.6037 86.2654 37.2723 86.7891 37.0369C87.3161 36.7983 87.9044 36.679 88.554 36.679C89.2102 36.679 89.7936 36.7966 90.304 37.032C90.8144 37.264 91.2188 37.5821 91.517 37.9865C91.8187 38.3909 91.9777 38.8499 91.9943 39.3636H90.8011ZM94.0016 47V39.3636H95.1749V47H94.0016ZM94.5982 38.0909C94.3695 38.0909 94.1723 38.013 94.0066 37.8572C93.8442 37.7015 93.763 37.5142 93.763 37.2955C93.763 37.0767 93.8442 36.8894 94.0066 36.7337C94.1723 36.5779 94.3695 36.5 94.5982 36.5C94.8269 36.5 95.0224 36.5779 95.1848 36.7337C95.3506 36.8894 95.4334 37.0767 95.4334 37.2955C95.4334 37.5142 95.3506 37.7015 95.1848 37.8572C95.0224 38.013 94.8269 38.0909 94.5982 38.0909ZM98.4972 42.4062V47H97.3239V39.3636H98.4574V40.5568H98.5568C98.7358 40.169 99.0076 39.8575 99.3722 39.6222C99.7367 39.3835 100.207 39.2642 100.784 39.2642C101.301 39.2642 101.754 39.3703 102.141 39.5824C102.529 39.7912 102.831 40.1094 103.046 40.5369C103.262 40.9612 103.369 41.4981 103.369 42.1477V47H102.196V42.2273C102.196 41.6274 102.04 41.16 101.729 40.8253C101.417 40.4872 100.99 40.3182 100.446 40.3182C100.071 40.3182 99.7367 40.3994 99.4418 40.5618C99.1501 40.7242 98.9197 40.9612 98.7507 41.2727C98.5817 41.5843 98.4972 41.9621 98.4972 42.4062ZM108.616 47.1591C107.9 47.1591 107.283 46.9901 106.766 46.652C106.249 46.3139 105.851 45.8482 105.573 45.255C105.295 44.6617 105.155 43.9839 105.155 43.2216C105.155 42.446 105.298 41.7616 105.583 41.1683C105.871 40.5717 106.272 40.1061 106.786 39.7713C107.303 39.4332 107.906 39.2642 108.596 39.2642C109.133 39.2642 109.617 39.3636 110.047 39.5625C110.478 39.7614 110.831 40.0398 111.106 40.3977C111.381 40.7557 111.552 41.1733 111.618 41.6506H110.445C110.356 41.3026 110.157 40.9943 109.849 40.7259C109.544 40.4541 109.133 40.3182 108.616 40.3182C108.158 40.3182 107.757 40.4375 107.412 40.6761C107.071 40.9115 106.804 41.2446 106.612 41.6754C106.423 42.103 106.329 42.6051 106.329 43.1818C106.329 43.7718 106.421 44.2855 106.607 44.723C106.796 45.1605 107.061 45.5002 107.403 45.7422C107.747 45.9841 108.152 46.1051 108.616 46.1051C108.921 46.1051 109.197 46.0521 109.446 45.946C109.694 45.84 109.905 45.6875 110.077 45.4886C110.25 45.2898 110.372 45.0511 110.445 44.7727H111.618C111.552 45.2235 111.388 45.6295 111.126 45.9908C110.868 46.3487 110.525 46.6338 110.097 46.8459C109.673 47.0547 109.179 47.1591 108.616 47.1591ZM116.535 47.1591C115.8 47.1591 115.165 46.9967 114.631 46.6719C114.101 46.3438 113.692 45.8864 113.403 45.2997C113.118 44.7098 112.976 44.0237 112.976 43.2415C112.976 42.4593 113.118 41.7699 113.403 41.1733C113.692 40.5734 114.093 40.1061 114.606 39.7713C115.123 39.4332 115.727 39.2642 116.416 39.2642C116.814 39.2642 117.206 39.3305 117.594 39.4631C117.982 39.5956 118.335 39.8111 118.653 40.1094C118.971 40.4044 119.225 40.7955 119.414 41.2827C119.603 41.7699 119.697 42.3698 119.697 43.0824V43.5795H113.811V42.5653H118.504C118.504 42.1345 118.418 41.75 118.246 41.4119C118.077 41.0739 117.835 40.8071 117.52 40.6115C117.208 40.416 116.84 40.3182 116.416 40.3182C115.949 40.3182 115.544 40.4342 115.203 40.6662C114.865 40.8949 114.605 41.1932 114.422 41.5611C114.24 41.929 114.149 42.3234 114.149 42.7443V43.4205C114.149 43.9972 114.248 44.486 114.447 44.8871C114.649 45.2848 114.93 45.5881 115.287 45.7969C115.645 46.0024 116.061 46.1051 116.535 46.1051C116.844 46.1051 117.122 46.062 117.371 45.9759C117.622 45.8864 117.84 45.7538 118.022 45.5781C118.204 45.3991 118.345 45.1771 118.444 44.9119L119.578 45.2301C119.459 45.6146 119.258 45.9527 118.976 46.2443C118.695 46.5327 118.347 46.758 117.932 46.9205C117.518 47.0795 117.052 47.1591 116.535 47.1591ZM128.979 36.8182V47H127.746V38.1108H127.687L125.201 39.7614V38.5085L127.746 36.8182H128.979ZM135.149 36.679C135.567 36.6823 135.984 36.7618 136.402 36.9176C136.819 37.0734 137.201 37.3319 137.545 37.6932C137.89 38.0511 138.167 38.54 138.376 39.1598C138.584 39.7796 138.689 40.5568 138.689 41.4915C138.689 42.3963 138.603 43.2 138.43 43.9027C138.261 44.602 138.016 45.192 137.694 45.6726C137.376 46.1532 136.988 46.5178 136.531 46.7663C136.077 47.0149 135.563 47.1392 134.99 47.1392C134.42 47.1392 133.911 47.0265 133.464 46.8011C133.019 46.5724 132.655 46.2559 132.37 45.8516C132.088 45.4439 131.907 44.9716 131.828 44.4347H133.041C133.15 44.902 133.367 45.2881 133.692 45.593C134.02 45.8946 134.453 46.0455 134.99 46.0455C135.775 46.0455 136.395 45.7024 136.849 45.0163C137.307 44.3303 137.535 43.3608 137.535 42.108H137.456C137.27 42.3864 137.05 42.6267 136.795 42.8288C136.539 43.031 136.256 43.1868 135.944 43.2962C135.633 43.4055 135.301 43.4602 134.95 43.4602C134.367 43.4602 133.831 43.3161 133.344 43.0277C132.86 42.736 132.473 42.3366 132.181 41.8295C131.893 41.3191 131.748 40.7358 131.748 40.0795C131.748 39.4564 131.888 38.8864 132.166 38.3693C132.448 37.849 132.842 37.4347 133.349 37.1264C133.86 36.8182 134.46 36.669 135.149 36.679ZM135.149 37.7727C134.731 37.7727 134.355 37.8771 134.02 38.0859C133.689 38.2914 133.425 38.5698 133.23 38.9212C133.038 39.2692 132.942 39.6553 132.942 40.0795C132.942 40.5038 133.034 40.8899 133.22 41.2379C133.409 41.5826 133.666 41.8577 133.991 42.0632C134.319 42.2654 134.692 42.3665 135.109 42.3665C135.424 42.3665 135.717 42.3052 135.989 42.1825C136.261 42.0566 136.498 41.8859 136.7 41.6705C136.906 41.4517 137.066 41.2048 137.182 40.9297C137.298 40.6513 137.356 40.3613 137.356 40.0597C137.356 39.6619 137.26 39.2891 137.068 38.9411C136.879 38.593 136.617 38.3113 136.282 38.0959C135.951 37.8804 135.573 37.7727 135.149 37.7727ZM140.689 47L145.243 37.9915V37.9119H139.993V36.8182H146.515V37.9716L141.981 47H140.689ZM151.576 47.1392C150.92 47.1392 150.335 47.0265 149.821 46.8011C149.311 46.5758 148.905 46.2625 148.603 45.8615C148.305 45.4571 148.143 44.9882 148.116 44.4545H149.369C149.395 44.7827 149.508 45.0661 149.707 45.3047C149.906 45.54 150.166 45.7223 150.488 45.8516C150.809 45.9808 151.165 46.0455 151.556 46.0455C151.994 46.0455 152.382 45.9692 152.72 45.8168C153.058 45.6643 153.323 45.4522 153.515 45.1804C153.708 44.9086 153.804 44.5938 153.804 44.2358C153.804 43.8613 153.711 43.5315 153.525 43.2464C153.34 42.9581 153.068 42.7327 152.71 42.5703C152.352 42.4079 151.914 42.3267 151.397 42.3267H150.582V41.233H151.397C151.802 41.233 152.156 41.16 152.461 41.0142C152.77 40.8684 153.01 40.6629 153.182 40.3977C153.358 40.1326 153.446 39.821 153.446 39.4631C153.446 39.1184 153.369 38.8184 153.217 38.5632C153.065 38.308 152.849 38.1091 152.571 37.9666C152.296 37.8241 151.971 37.7528 151.596 37.7528C151.245 37.7528 150.913 37.8175 150.602 37.9467C150.294 38.0727 150.042 38.2566 149.846 38.4986C149.651 38.7372 149.545 39.0256 149.528 39.3636H148.335C148.355 38.83 148.516 38.3627 148.817 37.9616C149.119 37.5573 149.513 37.2424 150 37.017C150.491 36.7917 151.029 36.679 151.616 36.679C152.246 36.679 152.786 36.8066 153.237 37.0618C153.688 37.3137 154.034 37.6468 154.276 38.0611C154.518 38.4754 154.639 38.9228 154.639 39.4034C154.639 39.9768 154.488 40.4657 154.186 40.87C153.888 41.2744 153.482 41.5545 152.968 41.7102V41.7898C153.611 41.8958 154.114 42.1693 154.475 42.6101C154.836 43.0476 155.017 43.5895 155.017 44.2358C155.017 44.7893 154.866 45.2865 154.564 45.7273C154.266 46.1648 153.858 46.5095 153.341 46.7614C152.824 47.0133 152.236 47.1392 151.576 47.1392Z" fill="#9B8E84"/>
<defs>
<clipPath id="clip0_578_1135">
<rect width="64" height="64" fill="white"/>
</clipPath>
</defs>
</svg>
